# xmcd CD database file
#
# Track frame offsets:
#	150
#	10749
#	21480
#	31669
#	42743
#	53571
#	67761
#	81139
#	92687
#	104703
#	118292
#	133406
#	146847
#	159559
#	175413
#	192125
#	203803
#	217978
#	233690
#	248457
#	262512
#	277103
#	289499
#
# Disc length: 4107 seconds
#
# Revision: 0
# Processed by: cddbd v1.5.2PL0 Copyright (c) Steve Scherf et al.
# Submitted via: CDex 1.70beta2
#
DISCID=4e100917
DTITLE=Milt Jackson - bags of soul - 1 bags' groove
DYEAR=2007
DGENRE=Jazz
TTITLE0=Lord Nelson and His Boppers - Third Song
TTITLE1=Sonny Stitt-Milt Jackson Sextet - Red Shoes
TTITLE2=Sonny Stitt-Milt Jackson Sextet - Bebop Blues
TTITLE3=Sonny Stitt-Milt Jackson Sextet - Royal Wedding
TTITLE4=Sonny Stitt-Milt Jackson Sextet - Fine And Dandy
TTITLE5=Milt Jackson Quartet - Milt Meets Sid
TTITLE6=Milt Jackson Quartet - D and E
TTITLE7=Milt Jackson Quartet - Yesterdays
TTITLE8=Milt Jackson Quartet - Between The Devil And The Deep Blue Sea
TTITLE9=Milt Jackson Quartet - Autumn Breeze
TTITLE10=Milt Jackson Quartet - Moving Nicely
TTITLE11=Milt Jackson Quartet - 'Round About Midnight
TTITLE12=Milt Jackson Quartet - Bluesology
TTITLE13=Milt Jackson Quartet - Softly As In A Morning Sunrise
TTITLE14=Milt Jackson Quartet - Love Me, Pretty Baby
TTITLE15=Milt Jackson Quartet - Heart And Soul
TTITLE16=Milt Jackson Quartet - True Blues
TTITLE17=Milt Jackson Quintet - Tahiti
TTITLE18=Milt Jackson Quartet - Lillie
TTITLE19=Milt Jackson Quintet - Bags' Groove
TTITLE20=Milt Jackson Quartet - What's New
TTITLE21=Milt Jackson Quintet - On The Scene
TTITLE22=Milt Jackson Quintet - Opus De Funk
EXTD=YEAR: 2007
EXTT0=
EXTT1=
EXTT2=
EXTT3=
EXTT4=
EXTT5=
EXTT6=
EXTT7=
EXTT8=
EXTT9=
EXTT10=
EXTT11=
EXTT12=
EXTT13=
EXTT14=
EXTT15=
EXTT16=
EXTT17=
EXTT18=
EXTT19=
EXTT20=
EXTT21=
EXTT22=
PLAYORDER=
